<svg width="184" height="40" viewBox="0 0 184 40" fill="none" xmlns="http://www.w3.org/2000/svg">
<path fill-rule="evenodd" clip-rule="evenodd" d="M19.9657 40C30.9925 40 39.9315 31.0457 39.9315 20C39.9315 8.95431 30.9925 0 19.9657 0C8.93894 0 0 8.95431 0 20C0 31.0457 8.93894 40 19.9657 40ZM26.1943 9.31684C26.4975 8.23805 25.4524 7.60013 24.498 8.2813L11.1739 17.7896C10.1388 18.5283 10.3016 20 11.4185 20H14.9271V19.9728H21.7651L16.1934 21.9421L13.7371 30.6832C13.434 31.762 14.479 32.3999 15.4335 31.7187L28.7575 22.2105C29.7927 21.4718 29.6297 20 28.513 20H23.1923L26.1943 9.31684Z" fill="#151515"/>
<path d="M61.5323 28.264C60.3149 28.264 59.1856 28.066 58.1443 27.67C57.1176 27.274 56.2229 26.7167 55.4603 25.998C54.7123 25.2793 54.1256 24.436 53.7003 23.468C53.2896 22.5 53.0843 21.444 53.0843 20.3C53.0843 19.156 53.2896 18.1 53.7003 17.132C54.1256 16.164 54.7196 15.3207 55.4823 14.602C56.2449 13.8833 57.1396 13.326 58.1663 12.93C59.1929 12.534 60.3076 12.336 61.5103 12.336C62.7276 12.336 63.8423 12.534 64.8543 12.93C65.8809 13.326 66.7683 13.8833 67.5163 14.602C68.2789 15.3207 68.8729 16.164 69.2983 17.132C69.7236 18.0853 69.9363 19.1413 69.9363 20.3C69.9363 21.444 69.7236 22.5073 69.2983 23.49C68.8729 24.458 68.2789 25.3013 67.5163 26.02C66.7683 26.724 65.8809 27.274 64.8543 27.67C63.8423 28.066 62.7349 28.264 61.5323 28.264ZM61.5103 25.228C62.1996 25.228 62.8303 25.1107 63.4023 24.876C63.9889 24.6413 64.5023 24.304 64.9423 23.864C65.3823 23.424 65.7196 22.9033 65.9543 22.302C66.2036 21.7007 66.3283 21.0333 66.3283 20.3C66.3283 19.5667 66.2036 18.8993 65.9543 18.298C65.7196 17.6967 65.3823 17.176 64.9423 16.736C64.5169 16.296 64.0109 15.9587 63.4243 15.724C62.8376 15.4893 62.1996 15.372 61.5103 15.372C60.8209 15.372 60.1829 15.4893 59.5963 15.724C59.0243 15.9587 58.5183 16.296 58.0783 16.736C57.6383 17.176 57.2936 17.6967 57.0443 18.298C56.8096 18.8993 56.6923 19.5667 56.6923 20.3C56.6923 21.0187 56.8096 21.686 57.0443 22.302C57.2936 22.9033 57.6309 23.424 58.0563 23.864C58.4963 24.304 59.0096 24.6413 59.5963 24.876C60.1829 25.1107 60.8209 25.228 61.5103 25.228ZM75.5848 28L70.6128 16.164H74.1548L78.2908 26.35H76.5308L80.8208 16.164H84.1208L79.1268 28H75.5848ZM92.3945 28V25.69L92.1745 25.184V21.048C92.1745 20.3147 91.9471 19.7427 91.4925 19.332C91.0525 18.9213 90.3705 18.716 89.4465 18.716C88.8158 18.716 88.1925 18.8187 87.5765 19.024C86.9751 19.2147 86.4618 19.4787 86.0365 19.816L84.8045 17.418C85.4498 16.9633 86.2271 16.6113 87.1365 16.362C88.0458 16.1127 88.9698 15.988 89.9085 15.988C91.7125 15.988 93.1131 16.4133 94.1105 17.264C95.1078 18.1147 95.6065 19.442 95.6065 21.246V28H92.3945ZM88.7865 28.176C87.8625 28.176 87.0705 28.022 86.4105 27.714C85.7505 27.3913 85.2445 26.9587 84.8925 26.416C84.5405 25.8733 84.3645 25.2647 84.3645 24.59C84.3645 23.886 84.5331 23.27 84.8705 22.742C85.2225 22.214 85.7725 21.8033 86.5205 21.51C87.2685 21.202 88.2438 21.048 89.4465 21.048H92.5925V23.05H89.8205C89.0138 23.05 88.4565 23.182 88.1485 23.446C87.8551 23.71 87.7085 24.04 87.7085 24.436C87.7085 24.876 87.8771 25.228 88.2145 25.492C88.5665 25.7413 89.0431 25.866 89.6445 25.866C90.2165 25.866 90.7298 25.734 91.1845 25.47C91.6391 25.1913 91.9691 24.788 92.1745 24.26L92.7025 25.844C92.4531 26.6067 91.9985 27.186 91.3385 27.582C90.6785 27.978 89.8278 28.176 88.7865 28.176ZM98.7126 28V16.164H102.145V28H98.7126ZM100.429 14.514C99.7979 14.514 99.2846 14.3307 98.8886 13.964C98.4926 13.5973 98.2946 13.1427 98.2946 12.6C98.2946 12.0573 98.4926 11.6027 98.8886 11.236C99.2846 10.8693 99.7979 10.686 100.429 10.686C101.059 10.686 101.573 10.862 101.969 11.214C102.365 11.5513 102.563 11.9913 102.563 12.534C102.563 13.106 102.365 13.5827 101.969 13.964C101.587 14.3307 101.074 14.514 100.429 14.514ZM111.05 28.176C109.774 28.176 108.637 27.9193 107.64 27.406C106.642 26.878 105.858 26.152 105.286 25.228C104.728 24.304 104.45 23.2553 104.45 22.082C104.45 20.894 104.728 19.8453 105.286 18.936C105.858 18.012 106.642 17.2933 107.64 16.78C108.637 16.252 109.774 15.988 111.05 15.988C112.296 15.988 113.382 16.252 114.306 16.78C115.23 17.2933 115.912 18.034 116.352 19.002L113.69 20.432C113.382 19.8747 112.993 19.464 112.524 19.2C112.069 18.936 111.57 18.804 111.028 18.804C110.441 18.804 109.913 18.936 109.444 19.2C108.974 19.464 108.6 19.838 108.322 20.322C108.058 20.806 107.926 21.3927 107.926 22.082C107.926 22.7713 108.058 23.358 108.322 23.842C108.6 24.326 108.974 24.7 109.444 24.964C109.913 25.228 110.441 25.36 111.028 25.36C111.57 25.36 112.069 25.2353 112.524 24.986C112.993 24.722 113.382 24.304 113.69 23.732L116.352 25.184C115.912 26.1373 115.23 26.878 114.306 27.406C113.382 27.9193 112.296 28.176 111.05 28.176ZM124.051 28.176C122.702 28.176 121.514 27.912 120.487 27.384C119.475 26.856 118.691 26.1373 118.133 25.228C117.576 24.304 117.297 23.2553 117.297 22.082C117.297 20.894 117.569 19.8453 118.111 18.936C118.669 18.012 119.424 17.2933 120.377 16.78C121.331 16.252 122.409 15.988 123.611 15.988C124.77 15.988 125.811 16.2373 126.735 16.736C127.674 17.22 128.415 17.924 128.957 18.848C129.5 19.7573 129.771 20.85 129.771 22.126C129.771 22.258 129.764 22.412 129.749 22.588C129.735 22.7493 129.72 22.9033 129.705 23.05H120.091V21.048H127.901L126.581 21.642C126.581 21.026 126.457 20.4907 126.207 20.036C125.958 19.5813 125.613 19.2293 125.173 18.98C124.733 18.716 124.22 18.584 123.633 18.584C123.047 18.584 122.526 18.716 122.071 18.98C121.631 19.2293 121.287 19.5887 121.037 20.058C120.788 20.5127 120.663 21.0553 120.663 21.686V22.214C120.663 22.8593 120.803 23.4313 121.081 23.93C121.375 24.414 121.778 24.788 122.291 25.052C122.819 25.3013 123.435 25.426 124.139 25.426C124.77 25.426 125.32 25.3307 125.789 25.14C126.273 24.9493 126.713 24.6633 127.109 24.282L128.935 26.262C128.393 26.878 127.711 27.3547 126.889 27.692C126.068 28.0147 125.122 28.176 124.051 28.176ZM135.598 19.53H142.99V22.39H135.598V19.53ZM135.862 28H132.298V12.6H143.936V15.46H135.862V28ZM153.023 28V25.69L152.803 25.184V21.048C152.803 20.3147 152.576 19.7427 152.121 19.332C151.681 18.9213 150.999 18.716 150.075 18.716C149.445 18.716 148.821 18.8187 148.205 19.024C147.604 19.2147 147.091 19.4787 146.665 19.816L145.433 17.418C146.079 16.9633 146.856 16.6113 147.765 16.362C148.675 16.1127 149.599 15.988 150.537 15.988C152.341 15.988 153.742 16.4133 154.739 17.264C155.737 18.1147 156.235 19.442 156.235 21.246V28H153.023ZM149.415 28.176C148.491 28.176 147.699 28.022 147.039 27.714C146.379 27.3913 145.873 26.9587 145.521 26.416C145.169 25.8733 144.993 25.2647 144.993 24.59C144.993 23.886 145.162 23.27 145.499 22.742C145.851 22.214 146.401 21.8033 147.149 21.51C147.897 21.202 148.873 21.048 150.075 21.048H153.221V23.05H150.449C149.643 23.05 149.085 23.182 148.777 23.446C148.484 23.71 148.337 24.04 148.337 24.436C148.337 24.876 148.506 25.228 148.843 25.492C149.195 25.7413 149.672 25.866 150.273 25.866C150.845 25.866 151.359 25.734 151.813 25.47C152.268 25.1913 152.598 24.788 152.803 24.26L153.331 25.844C153.082 26.6067 152.627 27.186 151.967 27.582C151.307 27.978 150.457 28.176 149.415 28.176ZM163.324 28.176C162.312 28.176 161.336 28.0587 160.398 27.824C159.474 27.5747 158.74 27.2667 158.198 26.9L159.342 24.436C159.884 24.7733 160.522 25.052 161.256 25.272C162.004 25.4773 162.737 25.58 163.456 25.58C164.248 25.58 164.805 25.4847 165.128 25.294C165.465 25.1033 165.634 24.8393 165.634 24.502C165.634 24.2233 165.502 24.018 165.238 23.886C164.988 23.7393 164.651 23.6293 164.226 23.556C163.8 23.4827 163.331 23.4093 162.818 23.336C162.319 23.2627 161.813 23.1673 161.3 23.05C160.786 22.918 160.317 22.7273 159.892 22.478C159.466 22.2287 159.122 21.8913 158.858 21.466C158.608 21.0407 158.484 20.4907 158.484 19.816C158.484 19.068 158.696 18.408 159.122 17.836C159.562 17.264 160.192 16.8167 161.014 16.494C161.835 16.1567 162.818 15.988 163.962 15.988C164.768 15.988 165.59 16.076 166.426 16.252C167.262 16.428 167.958 16.6847 168.516 17.022L167.372 19.464C166.8 19.1267 166.22 18.8993 165.634 18.782C165.062 18.65 164.504 18.584 163.962 18.584C163.199 18.584 162.642 18.6867 162.29 18.892C161.938 19.0973 161.762 19.3613 161.762 19.684C161.762 19.9773 161.886 20.1973 162.136 20.344C162.4 20.4907 162.744 20.608 163.17 20.696C163.595 20.784 164.057 20.8647 164.556 20.938C165.069 20.9967 165.582 21.092 166.096 21.224C166.609 21.356 167.071 21.5467 167.482 21.796C167.907 22.0307 168.252 22.3607 168.516 22.786C168.78 23.1967 168.912 23.7393 168.912 24.414C168.912 25.1473 168.692 25.8 168.252 26.372C167.812 26.9293 167.174 27.3693 166.338 27.692C165.516 28.0147 164.512 28.176 163.324 28.176ZM175.869 28.176C174.476 28.176 173.39 27.824 172.613 27.12C171.836 26.4013 171.447 25.338 171.447 23.93V13.546H174.879V23.886C174.879 24.3847 175.011 24.7733 175.275 25.052C175.539 25.316 175.898 25.448 176.353 25.448C176.896 25.448 177.358 25.3013 177.739 25.008L178.663 27.428C178.311 27.6773 177.886 27.868 177.387 28C176.903 28.1173 176.397 28.176 175.869 28.176ZM169.621 19.068V16.428H177.827V19.068H169.621Z" fill="#151515"/>
</svg>
